<svg width="202" height="121" viewBox="0 0 202 121" fill="none" xmlns="http://www.w3.org/2000/svg">
<path d="M202.257 0.428934C202.494 0.287032 202.571 -0.020042 202.429 -0.256936C202.287 -0.493829 201.98 -0.570835 201.743 -0.428934L202 0L202.257 0.428934ZM127.454 44.0711C127.217 44.213 127.14 44.52 127.282 44.7569C127.424 44.9938 127.731 45.0708 127.968 44.9289L127.711 44.5L127.454 44.0711ZM74.5462 76.9289C74.7831 76.787 74.8601 76.48 74.7182 76.2431C74.5763 76.0062 74.2692 75.9292 74.0323 76.0711L74.2893 76.5L74.5462 76.9289ZM-0.256936 120.571C-0.493829 120.713 -0.570835 121.02 -0.428934 121.257C-0.287032 121.494 0.020042 121.571 0.256936 121.429L0 121L-0.256936 120.571ZM0.256936 -0.428934C0.020042 -0.570835 -0.287032 -0.493829 -0.428934 -0.256936C-0.570835 -0.020042 -0.493829 0.287032 -0.256936 0.428934L0 0L0.256936 -0.428934ZM74.0323 44.9289C74.2692 45.0708 74.5763 44.9938 74.7182 44.7569C74.8601 44.52 74.7831 44.213 74.5462 44.0711L74.2893 44.5L74.0323 44.9289ZM127.968 76.0711C127.731 75.9292 127.424 76.0062 127.282 76.2431C127.14 76.48 127.217 76.787 127.454 76.9289L127.711 76.5L127.968 76.0711ZM201.743 121.429C201.98 121.571 202.287 121.494 202.429 121.257C202.571 121.02 202.494 120.713 202.257 120.571L202 121L201.743 121.429ZM202 0L201.743 -0.428934L127.454 44.0711L127.711 44.5L127.968 44.9289L202.257 0.428934L202 0ZM74.2893 76.5L74.0323 76.0711L-0.256936 120.571L0 121L0.256936 121.429L74.5462 76.9289L74.2893 76.5ZM0 0L-0.256936 0.428934L74.0323 44.9289L74.2893 44.5L74.5462 44.0711L0.256936 -0.428934L0 0ZM127.711 76.5L127.454 76.9289L201.743 121.429L202 121L202.257 120.571L127.968 76.0711L127.711 76.5Z" fill="black"/>
</svg>
